<svg xmlns="http://www.w3.org/2000/svg" xmlns:xlink="http://www.w3.org/1999/xlink" width="180" zoomAndPan="magnify" viewBox="0 0 135 30.000001" height="40" preserveAspectRatio="xMidYMid meet" version="1.0"><defs><clipPath id="a2d3a8aee0"><path d="M 2.175781 1.054688 L 15 1.054688 L 15 17 L 2.175781 17 Z M 2.175781 1.054688 " clip-rule="nonzero"></path></clipPath><clipPath id="7ec99a8d8a"><path d="M 40 1.054688 L 51 1.054688 L 51 17 L 40 17 Z M 40 1.054688 " clip-rule="nonzero"></path></clipPath><clipPath id="a3b5bc34a9"><path d="M 52 1.054688 L 63 1.054688 L 63 17 L 52 17 Z M 52 1.054688 " clip-rule="nonzero"></path></clipPath><clipPath id="14dd239951"><path d="M 63 1.054688 L 76 1.054688 L 76 17 L 63 17 Z M 63 1.054688 " clip-rule="nonzero"></path></clipPath><clipPath id="8441c4bca3"><path d="M 78 1.054688 L 91 1.054688 L 91 17 L 78 17 Z M 78 1.054688 " clip-rule="nonzero"></path></clipPath><clipPath id="d7579fe6be"><path d="M 117 5 L 132.820312 5 L 132.820312 17 L 117 17 Z M 117 5 " clip-rule="nonzero"></path></clipPath><clipPath id="ab297f4ed2"><path d="M 2.175781 19 L 91 19 L 91 27.910156 L 2.175781 27.910156 Z M 2.175781 19 " clip-rule="nonzero"></path></clipPath></defs><g clip-path="url(#a2d3a8aee0)"><path fill="#1a97d1" d="M 2.820312 1.359375 L 9.742188 1.359375 C 12.78125 1.359375 14.355469 2.691406 14.355469 5.09375 C 14.472656 6.378906 13.769531 7.597656 12.597656 8.128906 C 14.054688 8.640625 14.988281 10.074219 14.863281 11.621094 C 14.863281 14.433594 12.988281 16.113281 9.515625 16.113281 L 2.820312 16.113281 Z M 9.167969 7.0625 C 10.617188 7.0625 11.3125 6.589844 11.3125 5.460938 C 11.3125 4.3125 10.601562 3.921875 9.148438 3.921875 L 5.71875 3.921875 L 5.71875 7.0625 Z M 9.292969 13.445312 C 10.945312 13.445312 11.722656 12.890625 11.722656 11.539062 C 11.722656 10.101562 10.945312 9.589844 9.273438 9.589844 L 5.71875 9.589844 L 5.71875 13.449219 Z M 9.292969 13.445312 " fill-opacity="1" fill-rule="nonzero"></path></g><path fill="#1a97d1" d="M 21.644531 4.828125 C 25.050781 4.828125 27.136719 7.023438 27.136719 10.65625 C 27.136719 14.289062 25.050781 16.484375 21.644531 16.484375 C 18.234375 16.484375 16.152344 14.289062 16.152344 10.65625 C 16.152344 7.023438 18.234375 4.828125 21.644531 4.828125 M 21.644531 14.042969 C 23.257812 14.042969 24.171875 12.832031 24.171875 10.65625 C 24.171875 8.480469 23.253906 7.292969 21.644531 7.292969 C 20.03125 7.292969 19.089844 8.484375 19.089844 10.65625 C 19.089844 12.832031 20.027344 14.042969 21.644531 14.042969 " fill-opacity="1" fill-rule="nonzero"></path><path fill="#1a97d1" d="M 33.710938 4.828125 C 37.121094 4.828125 39.203125 7.023438 39.203125 10.65625 C 39.203125 14.289062 37.121094 16.484375 33.710938 16.484375 C 30.304688 16.484375 28.222656 14.289062 28.222656 10.65625 C 28.222656 7.023438 30.304688 4.828125 33.710938 4.828125 M 33.710938 14.042969 C 35.324219 14.042969 36.242188 12.832031 36.242188 10.65625 C 36.242188 8.480469 35.324219 7.292969 33.710938 7.292969 C 32.101562 7.292969 31.160156 8.484375 31.160156 10.65625 C 31.160156 12.832031 32.097656 14.042969 33.710938 14.042969 " fill-opacity="1" fill-rule="nonzero"></path><g clip-path="url(#7ec99a8d8a)"><path fill="#1a97d1" d="M 40.871094 1.359375 L 43.6875 1.359375 L 43.6875 9.09375 L 47.140625 5.214844 L 50.628906 5.214844 L 46.855469 9.257812 L 50.855469 16.113281 L 47.382812 16.113281 L 44.792969 11.476562 L 43.683594 12.667969 L 43.683594 16.117188 L 40.867188 16.117188 Z M 40.871094 1.359375 " fill-opacity="1" fill-rule="nonzero"></path></g><g clip-path="url(#a3b5bc34a9)"><path fill="#21366c" d="M 52.039062 1.359375 L 62.285156 1.359375 L 62.285156 3.925781 L 55.019531 3.925781 L 55.019531 7.269531 L 61.390625 7.269531 L 61.390625 9.835938 L 55.019531 9.835938 L 55.019531 16.113281 L 52.039062 16.113281 Z M 52.039062 1.359375 " fill-opacity="1" fill-rule="nonzero"></path></g><g clip-path="url(#14dd239951)"><path fill="#21366c" d="M 63.75 1.359375 L 66.792969 1.359375 L 66.792969 6.859375 L 72.855469 6.859375 L 72.855469 1.359375 L 75.898438 1.359375 L 75.898438 16.113281 L 72.855469 16.113281 L 72.855469 9.566406 L 66.792969 9.566406 L 66.792969 16.113281 L 63.75 16.113281 Z M 63.75 1.359375 " fill-opacity="1" fill-rule="nonzero"></path></g><g clip-path="url(#8441c4bca3)"><path fill="#21366c" d="M 78.601562 1.359375 L 85.722656 1.359375 C 88.910156 1.359375 90.441406 2.691406 90.441406 5.546875 C 90.441406 7.351562 89.664062 8.582031 88.253906 9.035156 C 89.644531 9.527344 90.011719 10.472656 90.074219 12.257812 L 90.132812 14.003906 C 90.15625 14.867188 90.15625 15.378906 90.707031 15.667969 L 90.707031 16.117188 L 87.398438 16.117188 C 87.148438 15.535156 87.03125 14.90625 87.050781 14.269531 L 87.011719 12.710938 C 86.949219 10.964844 86.5 10.371094 84.824219 10.371094 L 81.621094 10.371094 L 81.621094 16.117188 L 78.601562 16.117188 Z M 85.171875 7.800781 C 86.703125 7.800781 87.417969 7.207031 87.417969 5.851562 C 87.417969 4.582031 86.726562 3.902344 85.316406 3.902344 L 81.621094 3.902344 L 81.621094 7.800781 Z M 85.171875 7.800781 " fill-opacity="1" fill-rule="nonzero"></path></g><path fill="#1a97d1" d="M 92.910156 14.289062 L 94.257812 14.289062 L 94.257812 16.113281 L 92.910156 16.113281 Z M 92.910156 14.289062 " fill-opacity="1" fill-rule="nonzero"></path><path fill="#1a97d1" d="M 105.128906 12.441406 C 105.035156 14.71875 103.121094 16.484375 100.855469 16.390625 C 100.8125 16.386719 100.765625 16.382812 100.71875 16.382812 C 97.902344 16.382812 96.085938 14.328125 96.085938 10.859375 C 96.085938 7.289062 97.921875 5.195312 100.800781 5.195312 C 103.191406 5.195312 104.863281 6.671875 104.984375 8.851562 L 103.800781 8.851562 C 103.632812 7.332031 102.316406 6.207031 100.796875 6.285156 C 98.753906 6.285156 97.347656 7.90625 97.347656 10.757812 C 97.347656 13.652344 98.753906 15.292969 100.816406 15.292969 C 102.441406 15.332031 103.800781 14.070312 103.898438 12.441406 Z M 105.128906 12.441406 " fill-opacity="1" fill-rule="nonzero"></path><path fill="#1a97d1" d="M 111.160156 5.199219 C 114.242188 5.199219 116.039062 7.230469 116.039062 10.800781 C 116.039062 14.371094 114.242188 16.382812 111.160156 16.382812 C 108.078125 16.382812 106.300781 14.371094 106.300781 10.800781 C 106.300781 7.230469 108.078125 5.199219 111.160156 5.199219 M 111.160156 15.296875 C 113.425781 15.296875 114.773438 13.714844 114.773438 10.804688 C 114.773438 7.890625 113.429688 6.289062 111.160156 6.289062 C 108.914062 6.289062 107.566406 7.890625 107.566406 10.804688 C 107.566406 13.714844 108.910156 15.296875 111.160156 15.296875 " fill-opacity="1" fill-rule="nonzero"></path><g clip-path="url(#d7579fe6be)"><path fill="#1a97d1" d="M 117.816406 5.464844 L 118.957031 5.464844 L 118.957031 7.226562 C 119.597656 5.957031 120.90625 5.167969 122.324219 5.195312 C 123.707031 5.050781 124.988281 5.941406 125.347656 7.289062 C 125.96875 5.976562 127.308594 5.152344 128.753906 5.195312 C 131.0625 5.195312 132.183594 6.347656 132.183594 8.683594 L 132.183594 16.113281 L 130.960938 16.113281 L 130.960938 8.789062 C 130.960938 7.0625 130.347656 6.285156 128.714844 6.285156 C 127.089844 6.195312 125.699219 7.445312 125.609375 9.078125 C 125.601562 9.199219 125.601562 9.324219 125.613281 9.445312 L 125.613281 16.113281 L 124.386719 16.113281 L 124.386719 8.910156 C 124.386719 7.144531 123.675781 6.285156 122.160156 6.285156 C 120.496094 6.222656 119.097656 7.527344 119.03125 9.203125 C 119.027344 9.308594 119.03125 9.417969 119.039062 9.527344 L 119.039062 16.113281 L 117.8125 16.113281 Z M 117.816406 5.464844 " fill-opacity="1" fill-rule="nonzero"></path></g><g clip-path="url(#ab297f4ed2)"><path fill="#21366c" d="M 87.382812 19.132812 L 84.699219 24.5625 C 84.523438 24.839844 84.207031 25 83.878906 24.972656 L 81.464844 24.972656 L 81.464844 20.460938 C 81.464844 19.738281 80.878906 19.152344 80.160156 19.152344 L 2.816406 19.152344 L 2.816406 21.992188 L 78.640625 21.773438 L 78.640625 26.5 C 78.640625 27.226562 79.222656 27.8125 79.945312 27.8125 L 83.679688 27.8125 C 84.308594 27.851562 84.9375 27.75 85.519531 27.507812 C 85.980469 27.230469 86.382812 26.871094 86.714844 26.445312 C 86.726562 26.429688 86.738281 26.414062 86.75 26.398438 L 90.789062 19.132812 Z M 87.382812 19.132812 " fill-opacity="1" fill-rule="nonzero"></path></g></svg>
